<svg id="Layer_1" data-name="Layer 1" xmlns="http://www.w3.org/2000/svg" viewBox="0 0 463.6 135.84"><defs><style>.cls-1{fill:#e0a928;}</style></defs><path class="cls-1" d="M223.74,133.44c4.64.38,10.2.23,8.95-1.15q-1-.49-1.92-1a22.76,22.76,0,0,1-3.75,1.59A21.27,21.27,0,0,1,223.74,133.44Z"/><path class="cls-1" d="M362.51,32.94l-1.06-.46-2.26,1.81Z"/><path class="cls-1" d="M364.45,25.61l4.6.75A24.88,24.88,0,0,0,364.45,25.61Z"/><path class="cls-1" d="M90,57.53a43.17,43.17,0,0,0,6.36,3.67C93.5,59,91.41,56.51,90,57.53Z"/><path class="cls-1" d="M104,64.58c-.39-.37-.81-.67-1.22-1a41.07,41.07,0,0,1-6.41-2.36A12.92,12.92,0,0,0,104,64.58Z"/><path class="cls-1" d="M27.45,27.11c-2-1.59-.43-.12,0,0Z"/><path class="cls-1" d="M23.75,13.83c.49.24.93.36,1.26.14A1.68,1.68,0,0,1,23.75,13.83Z"/><path class="cls-1" d="M128.45,65.3l.16.11C128.21,64.77,128.27,64.88,128.45,65.3Z"/><path class="cls-1" d="M25.13,24a17.84,17.84,0,0,0,2.07,2.55C26.9,26.06,26.23,25.35,25.13,24Z"/><path class="cls-1" d="M24.94,24.94l-1.48-1.68C23,23.24,23.11,23.57,24.94,24.94Z"/><path class="cls-1" d="M30.21,29.32a25.4,25.4,0,0,1-3-2.79c.3.41.39.62.25.58C28,27.56,28.83,28.27,30.21,29.32Z"/><path class="cls-1" d="M254.28,79.32c0,.1,0,.17-.06.26l.22-.26Z"/><path class="cls-1" d="M257.32,71.43a10.33,10.33,0,0,1-2.88,7.89l5.69.1C259.15,76.79,258.21,74.14,257.32,71.43Z"/><path class="cls-1" d="M447.09-98.61l.65,2.48.53,2.48c-1.28-.94-2.29-1.87-3.18-2.62s-1.53-1.41-2-1.78c-1-.75-1.19-.46-.86,1.9,1.22-.63,2.47,0,3.73,1.27a22.68,22.68,0,0,1,3.42,5.33c2.09,4.08,3.49,8.48,6.2,8.1,0,1.15-.18,2.32-.28,3.46-.17-.92-.52-1-.68-1.89-.48,3.36.64,4.25,2.12,5.45s3.18,2.68,3.21,7a11.83,11.83,0,0,1-.63,3.39c-.33.64-.66.65-1-.31.51,2.12,1,4.28,1.3,6.49-.08.95-.39,1.29-.62,1.16s-.39-.73-.31-1.66c0,.82,0,1.65-.05,2.47l-.11,2.48c-.17,1.65-.27,3.32-.55,5l-.14-.11a29.31,29.31,0,0,1,1.27,6.8c-1.46,2.32-.2-1.42-1-.94-.08,1.93-.16,3.89-.38,5.84-1,.89-1.5.08-1.54-1.37a18.38,18.38,0,0,1,.86-5.39c-3.31,1.82-3.23,2.91-3.25,4.89a10.87,10.87,0,0,1-.47,3.72,10.73,10.73,0,0,1-1.11,2.54,17.18,17.18,0,0,1-2.18,3c.28-.83.53-1.66.75-2.5s.48-1.67.68-2.51A11,11,0,0,0,447-30.27L446-28.91,445-27.5a18.16,18.16,0,0,1-2.76,2.93,21.44,21.44,0,0,0,2.17-1.33c.94-.66,2-1.44,3.07-2,2-1.21,3.65-1.71,2.94,1.34a11.42,11.42,0,0,0-1.7,2.54A16.45,16.45,0,0,0,447.27-20c-1.69-1-2.9,2-5.15,5.3L440.2-16.4c-1.92,3.81-.73,4.34-1.45,7-3.35,3.55-5.55,2.85-7.49,2.49-2.76,2.5-1.33,2.15.14,2,.73-.07,1.42-.13,1.59.28s-.25,1.26-1.82,3a45,45,0,0,0-3.62,2.77c-1.13.9-2.12,1.91-3.18,2.9-2.06,2.06-4.19,4.34-7.08,7.08-4.37,1.56-.13-1.73-1.91-1.53-.79,1.24-1.58,2.54-2.45,3.75-.89.42-.9-.28-.91-.64A2.43,2.43,0,0,0,411,15.16c0,.69-.22,1.49-2.55,3-.09,1.57-3.14,1.82-6.69,2.06s-7.67.42-10.63,2.72c-1.79-.32.43-1.72-.3-2.56-4.23,2.06-6.19,2.74-7.89,3.51-.85.39-1.65.78-2.71,1.3s-2.35,1.24-4.24,2.16c-2.3-.28-4.6-.63-6.89-1,5.13,1.43-.95,4.35-6.54,6.58a44.91,44.91,0,0,0,4.54,1.8c-3,.7-6,1.35-9,2-1.13-.35-.26-1.29,1.16-2.44-.6.24-1.18.49-1.62.71-3.31-.76-1.7-2.32.53-3.89,1.13.43,2.26.91,3.35,1.37,2.14-1.7,4.08-3.56,3.51-5a9.87,9.87,0,0,1-2.89.9c.55-.46.9-.86.61-1.1s-1.21.38-2.64,1.13l-2.22-2.73-.42,1.17-12-1.1c-4.21,1.69-8.14,3.73-12.65,5.76a134.47,134.47,0,0,1-16.06,6c2.87-2.77,0-3.5-.33-6a7,7,0,0,0,3.57.26,31.28,31.28,0,0,0,4.23-1.16,34.59,34.59,0,0,1,10.12-2.28c-3.77.1-3.08-1.16-2.16-1.66-4.22,1.22-8.45,2.56-12.62,4.15,0-1-.79-1.27-2-1.29s-2.85.29-4.67.27c1.75,1.64-.53,2.86-3.77,4.09-1.62.69-3.51,1.28-5.25,2.08-.87.38-1.72.74-2.48,1.14a20.38,20.38,0,0,0-2,1.23c-.42-.55-.47-1.26.39-2.14s2.67-1.86,5.91-2.8A7.79,7.79,0,0,0,301,34.47,12.44,12.44,0,0,0,298,37.29a22.76,22.76,0,0,1-2.66,3,8.4,8.4,0,0,1-1.79,1.13,8.79,8.79,0,0,1-2.4.78c1.39-.83,2.23-1.11,2.49-2a32.93,32.93,0,0,1-6.39,4.33c-.56.29-1.09.55-1.57.76a9.43,9.43,0,0,1-1.18.49c-.64.18-.94.07-.67-.5.43-.34.86-.69,1.31-1-1.15.76-2.41,1.67-3.76,2.66s-2.66,2.2-4,3.41-2.66,2.61-3.89,4-2.42,2.83-3.44,4.28-2,2.85-2.75,4.19a31.36,31.36,0,0,0-1.88,3.77c-1,2.27-1.21,4-.71,4.78a14.33,14.33,0,0,1-2.94-4.28c-.29,7.43.25,14.41.64,21.5-1.78-2.81-10.81-.92-8.18-9a25.51,25.51,0,0,0-4.94,9c1.15-1.13,5.65-1.35,4.79.7a33.3,33.3,0,0,0-4.76,3.27,38.68,38.68,0,0,1-5,4c.89-.75,1.95,0,2.48,1.36a4.8,4.8,0,0,1-.64,4.76c-.21-.87-3.78-2.48-3.4-3.81-.25,1.64-.58,3.24-.93,4.85l-.59,2.39c-.22.8-.48,1.58-.73,2.39,1-2.19-2.49-2.86-4.66-2.57.31,0,.14.32-.32.8-.23.24-.53.52-.88.83l-1.2.93c-1.7,1.33-3.86,2.6-4.66,3.35l1.75-.49c.57-.18,1.14-.4,1.72-.6-.5.31-.95.63-1.36.94a11.15,11.15,0,0,0-1.17.88,10.46,10.46,0,0,0-1,.91,9.65,9.65,0,0,0-.83.87,30.94,30.94,0,0,0-2.49,3.68,15,15,0,0,1-1.29,1.82,10.12,10.12,0,0,1-1.68,1.73A11.64,11.64,0,0,1,220,123c-.48.19-1,.36-1.55.52a9,9,0,0,1-1.82.36,4.1,4.1,0,0,0,.76-3.45,3.06,3.06,0,0,0-1-1.75,3.54,3.54,0,0,0-2.43-.79,34.91,34.91,0,0,1-2.33,2.81,22.16,22.16,0,0,1-2,1.77,15.34,15.34,0,0,1-1.24.92q-.66.41-1.41.81a16.44,16.44,0,0,1-3.26,1.37,18,18,0,0,1-11.79-.33c-.37-.73-.73-1.45-1-2.19a60,60,0,0,1-7.28-3.59c3,.27,8.36,1.15,13.58.86a31.47,31.47,0,0,0,7.25-1.12,24.2,24.2,0,0,0,2.94-1c.89-.36,1.66-.59,2.36-.95a4.18,4.18,0,0,1-1.39-.85c-.26-.24-.38-.42-.55-.57a2.2,2.2,0,0,0-.83-.39,14.34,14.34,0,0,0-2.14-.59c-.53-.88.19-1,1.13-1.17a8.14,8.14,0,0,1,1.48,0,9.19,9.19,0,0,1,1.22,0l-1.12-.26-1.08-.4c-.35-.14-.72-.23-1.07-.39l-1.06-.49a30.62,30.62,0,0,1-4.18-2.55c-.49,1.26-2.6.77-4.79-.16s-4.4-2.17-5-1.18a36.63,36.63,0,0,0,12,5,2.8,2.8,0,0,1-1.88,1.67,9.1,9.1,0,0,1-4.28.38,16.66,16.66,0,0,1-5.69-1.84,21.63,21.63,0,0,1-5.59-4.3c-.51-1.26.67-1.78,2-2.1s2.85-.5,3.09-.89c-.75-.07-2.66-1.27-4.4-2.73s-3.34-3-3.42-3.61c1.32.69,2.63,1.37,3.92,2-3-4.59-8.79-4.14-11.92-10.81a19.16,19.16,0,0,1-2.2-4.29c-.69-1.55-1.4-2.72-2.08-2.28.45,2.46-.85,5.55-2.69,8s-4.17,4.3-5.84,4.31l-3.75-5.67c-.94-1.38-1.89-2.84-2.68-4.13a21.9,21.9,0,0,1-1.74-3.08c-.73-2.13,1.27-2.36,3.33-2.49s4.19-.14,3.55-2c-.58.48-2.84-.17-3.72-.51-.77-1-.22-1.31,0-1.73s0-1-2.24-2.51c-1.2.82-3.33-.93-4.57-1.91s-1.49-1.34,1.14,2.2a18.24,18.24,0,0,1-4.51-3.26,27.24,27.24,0,0,0-4.88-3.94c.32,1.3-1.66,1.72-4.32,1.65a26.51,26.51,0,0,1-8.36-1.67c.62-.44.09-1.81-.18-2.46-2.24-1.43-4.25-2.64-6.07-3.87l-5.24-3.37c-1.71-1-3.41-2.08-5.24-3.13s-3.83-2-6.11-3c-.56-1-4.69-3.63-2.34-3.89-1.51-.15-3.1.23-6-.87-4.7-4.44,6.56,2.25,3.37-2.09-.48.67-2.56.4-5-.07s-5.4-1.15-7.61-1.46c.38,2.76,9.2,4,13.69,4.81-.65,1.56-3.09,2.44-6.57,2.65a49,49,0,0,1-13.23-1.28c-8-2.18-2.55-3.33-4.06-3.39-7.12-3.09-10.73-3.07-14-3.12a18.65,18.65,0,0,1-5-.68,17.5,17.5,0,0,1-3-1.31,24.3,24.3,0,0,1-3.65-2.42C50.48,36.57,51,35.62,51.82,35s2.14-1.05,2-2c6.3,2.42,8.68,5.8,12.92,7.58-1.59-1-3.15-2.15-4.72-3.22a21.33,21.33,0,0,1,4.36,1.07,15.21,15.21,0,0,1,4.2,2C69,38.62,63,36.08,56.41,32.61c-1.64-.88-3.34-1.77-5-2.77-.82-.49-1.66-1-2.47-1.48l-2.37-1.59a46.24,46.24,0,0,1-7.88-6.56c-.52-.18-1.13-.4-1.71-.65s-1.15-.5-1.63-.66c-1-.34-1.61-.36-1.24.54,1,.75,2,1.53,3.11,2.2.84,1.74-.95,1.14-2.54.47s-2.95-1.42-1.33.51l-3.75-1.94c-1.26-.74-2.55-1.56-3.85-2.47a15.92,15.92,0,0,1-1.89-1.52c-.62-.55-1.23-1.14-1.83-1.76a22.08,22.08,0,0,1-3.3-4.36L19.85,8c-.23.28.18,1.47,1,2.74a14.25,14.25,0,0,0,1.35,1.84A6.73,6.73,0,0,0,23.7,13.8C22.22,13,21,10.24,19.76,7.62S17.2,2.46,15,1.91c.46,1.75.93,3.51,1.49,5.27C12.34,3.55,6.66-.88,4.23-7.11c-.35,1.89-.1,2.2.19,2.72s.65,1.23.61,4C5.54-3,7.57.71,9.71,4.11S14,10.57,13.63,6.75c.1,6,3.89,7.92,6.46,14.78.22-.36.1-1.08.39-1.11s.39.14.83.59a30.75,30.75,0,0,1,2.15,2.25,6.53,6.53,0,0,1,1.43.39l.24.33-.17-.3c.27.09.31.09-.06-.11a7.25,7.25,0,0,1-1.28-3c1.7.36,4.12,2.19,6.66,3.85l1.84,1.29,1.8,1.1a19.38,19.38,0,0,0,2.88,1.5c2.51,2.23-1.69,0-.71,1.7l4.56,1.41c-.33.9,1.16,2.68,1.83,3.88s.51,1.76-3.2,0c2,1.3,4.07,2.66,6.16,3.84A29.54,29.54,0,0,0,57.17,46a14.09,14.09,0,0,0,4.88,1.47c1.34.19,1.93.16.34.25l5.21,1.6,5.18,1.49-.08.46c4.86,2,10.11,3.23,15.33,4.83,1.3.41,2.62.83,3.9,1.31s2.5,1,3.74,1.58a30.76,30.76,0,0,1,3.62,2,27.63,27.63,0,0,1,3.45,2.55,38.94,38.94,0,0,1,11.25,5l.22,1.88c2,.73,4.58,2.66,7,4.29s4.46,3.11,5.66,2.92a9.65,9.65,0,0,0,3.36,4.44,59.75,59.75,0,0,0,6.12,4.47c4.57,2.95,9.48,6.1,12.1,8.72l1.51-1.38c3.85,3.38,7.89,6.19,13.05,10.06l1-1.56c2.49,1.45,4.77,4.16,7.24,7.5s5.31,7.24,9.17,10.56c-1,0-2.76-1.82-3.71-3.35,2.74,5.52,8.49,9.58,15.05,12.11a55.19,55.19,0,0,0,10,2.79c3.32.74,6.52,1.14,9.64,2a21,21,0,0,1,4.09-.56,20.31,20.31,0,0,1,3.4,0,3.56,3.56,0,0,0-.75.19,8.83,8.83,0,0,0,1.26-.16,40.06,40.06,0,0,0,4.38,0c-1.35-.06-2.66-.2-3.72-.13a27.15,27.15,0,0,0,4.09-1.19c.75-.28,1.53-.59,2.31-.92s1.52-.76,2.26-1.17c.68.42,1.39.85,2.09,1.24.25-.14.45-.23.71-.39,3.4-.8,2-1.95-.17-2.52a15.57,15.57,0,0,0,3.29-3,3,3,0,0,0,1.4.2,4,4,0,0,0,1.34-.43,11.83,11.83,0,0,0,2.58-1.88,20.52,20.52,0,0,1,2.63-2.08,5.3,5.3,0,0,1,3.17-.9,9.9,9.9,0,0,1,2-3.05c1-1.36,2.26-2.91,3.34-4.61,2.17-3.33,3.64-6.76,2.71-8.38.41.17,1.09-.43.2.91,2.22-2.49,4.33-5.08,5-8.06l2.8.07c.27-2.61.46-5.17.63-7.72,3.36-2.93,4.95-4,4.57.53a51.21,51.21,0,0,1,2.59-8.61,44.33,44.33,0,0,0,2.24-7.43l1.11,1.19a16.94,16.94,0,0,0,1.05-2.21c.33-.82.65-1.71,1-2.5.69-1.64,1.55-3,2.6-3.26,3.14-1.6,8.25-7.44,15.55-12.4a53,53,0,0,1,12.18-6.24,45.69,45.69,0,0,1,13-2.65c-2.07-1.94-.09-1.85,2.38-1.7a18.76,18.76,0,0,0,3.63.1c1.06-.11,1.82-.48,1.85-1.39,1.13.94,3.46,1.22,1,2.56a37.16,37.16,0,0,1,10.23-1,15.9,15.9,0,0,0,8.42-2c1.07,1-1.78,1.73-.85,2.32.69-.28,2.73-1.12,3.68-.52s-1.23,1-2.58,1.57c9-.72,9.79-4.15,10.24-7.38,4.72,1.24,7.06.87,10.27-1.47,1.69.91,4.52,1.78-1.21,2.61,1.62,0,6.61,0,11.25-.54s8.88-1.49,8.82-2.79a5.66,5.66,0,0,0,2.82-.17,13.38,13.38,0,0,0,2.56-.94c1.83-.31,3.24-.63,4.44-.88s2.19-.45,3.17-.71,1.95-.52,3.12-.86,2.53-.86,4.27-1.51c-.69.1-1.39.17-2.09.26a5.63,5.63,0,0,1,4.07-3.12c.92-.24,1.93-.51,3.06-.86.56-.17,1.15-.37,1.77-.61a20.27,20.27,0,0,0,1.87-.93v.36c6.59-2,7.69-3.19,8.82-4.08a14.22,14.22,0,0,1,2.31-1.62c1.22-.66,3-1.56,6.15-3l-1.73-1.11c-.35-1,.12-1.84,1.13-2.6a32,32,0,0,1,4.26-2.33c3.42-1.7,7.71-4,9.77-7.39l-2.71,1.26a5.76,5.76,0,0,1,2.74-2.46A33.53,33.53,0,0,1,449.53.92C451.11.3,452.75-.33,454.21-1a12.22,12.22,0,0,0,3.42-2.27c.88-.57-.46,1.57-1.07,2.83a34,34,0,0,0,2.55-2.43,7.37,7.37,0,0,0,1.11-1.53c.37-.76.09-1.07-.33-1.36s-1-.55-1.12-1.2,0-1.7,1.05-3.58c1-.31,1.46.58,2.08.95s1.46.25,3.05-2.27c1.23-1,2.43-5.33,3.63-10.17s2.37-10.2,4.74-13.7c-.74.72-1.5,1.4-2,1.39s-.75-.67-.6-2.69c.71-2.94,2.54-6.73,3.84-10.7a24.54,24.54,0,0,0,1.18-5.88,11.41,11.41,0,0,0-.11-2.7,8.17,8.17,0,0,0-.81-2.35c.31-.78.6-1.07.86-1.1-.18-1.19-.42-2.75-.63-4.45s-.58-3.56-1-5.3c-.8-3.48-1.92-6.64-3.05-7.83,2.9-2.65.6-9.9-2.8-15.81L467-95.34l-1.24-2c-.75-1.33-1.54-2.49-2.05-3.56-1.08-2.09-1.43-3.65-.1-4.43a83.13,83.13,0,0,0-8.84-11.6l.72-.11a34.2,34.2,0,0,0-4-4.36A20.45,20.45,0,0,0,448-124a15.5,15.5,0,0,0-2.86-1.39,24.2,24.2,0,0,0-2.56-.81c-1.32-1.64.2-1.12.55-1.25-4.7-4.69-7.57-6.93-10.47-8.57s-5.95-2.59-11.33-4l0-2.27c-1.55-.23-5.2-3.17-10.12-6.36a79.51,79.51,0,0,0-8.12-4.68c-1.46-.71-3-1.38-4.46-1.95a40.63,40.63,0,0,0-4.47-1.42,1.92,1.92,0,0,1,1.59-.24c-6.71-1.78-13.47-6.52-19.41-10.29a45,45,0,0,0-8.21-4.5c-2.47-1-4.71-1.19-6.66-.19-2.9-.87-5.71-1.88-8.6-2.82,4.85,3.1,4.1,3.57,2.56,3.69s-3.88-.15-2.1,1.57a15.82,15.82,0,0,1-3.13-2,15.79,15.79,0,0,1-2.35-2.39c-1.1-1.43-1-2.27,1.43-1l.56.77c1.84-1.08-1-3.24-4.15-5.37s-6.33-4.47-5.47-5.44a128.67,128.67,0,0,1-24.4-21.77A225.3,225.3,0,0,1,297-231.87l-1,3.61c-.68-1-1.35-2-2-3.08l-2-3.19c-.54-2,.42-3.5,3.32,1.07-.18-3.29-6.24-6.78-6.85-6.54-5.11-9.46,5.19,1.5,3.38-1.22-.88-1.19-1.82-2.38-2.72-3.56l.29,1c-3.05-2.29-4.24-1.82-8-7.24-2.05-3.7.14-2.81-.76-4.2.17-.12-.08-.63-1.52-2.07-1.94-2.65-4-5.25-6.11-7.83l.79,4.52c-3.62-2.64-6-7-4.93-1.94-.64-3.79-6.65-10.93-13.76-16.65-1.76-1.43-3.63-2.73-5.35-4l-5.06-3.23a70.76,70.76,0,0,1-6.42-3.88c-1.65-.28-3.19-.71-4.77-1.1s-3.15-.78-4.74-1.27-3.21-.87-4.89-1.4l-2.61-.67c-.89-.24-1.8-.48-2.75-.67.91.4,1.48,1.32,1,1.91s-1.85.87-5,.2a1.76,1.76,0,0,0-.57-2.78,8.45,8.45,0,0,0-2-.88,28.7,28.7,0,0,0-2.82-.56c-1-.19-2.14-.28-3.26-.39l-1.69-.18-1.67-.14a19.35,19.35,0,0,1-5.9-1.27c2.76,1-2.31,1.61-6.71,3.16a19,19,0,0,0-5.18,2.4c-.93.76-.75,1.3,1.36,1.48-2.7.79-3,.37-3.15-.23s-.19-1.38-2.51-1.06c-3,1.91-6.06,3.83-9.11,5.93a110.16,110.16,0,0,0-9.1,6.83,95.89,95.89,0,0,0-8.53,8,77.41,77.41,0,0,0-7.35,9.26c.32.56,2.59-.95,1.28,2.29-2.43,1.57-4.75,3.23-7,5-.75,1.37-.5,2.43-.66,3.58s-.73,2.38-3,4.18c.77-.41,1.95-1,.94.8-4.67,5.88-8.79,12.2-12.94,18.52s-8.35,12.63-13,18.6a108.54,108.54,0,0,1-15.61,16.45A74.26,74.26,0,0,1,77.1-182.47c1.86-.81,2.19-.92,1.68-.68a35.35,35.35,0,0,1-3.28,1.42c1.9-.7,0,.12.39,0a65.24,65.24,0,0,1-12.19,3.32,30.93,30.93,0,0,1-3.08.49c-1.39.23-3,.32-4.69.44s-3.24.08-4.53.12-2.23-.08-2.56-.08c1.34.06,2.68.11,4,.06-2.68,0-.81,0,1.64,0s5.44-.28,5-.24a85.12,85.12,0,0,0,11.22-1.92,56.34,56.34,0,0,0,13.4-5c2-.91-1.62.93-.54.48,2.18-1.25,4.91-2.58,9.7-5.56-.17.14-.33.27-.51.4A137.77,137.77,0,0,0,108.33-201c4.48-3.89,9.06-8.08,15.32-14.5l-1.53.46a45.61,45.61,0,0,1,4.75-4.42c.88-2.09-.88-.06-2.71,2s-3.73,4.07-2.92,2.16c2.31-1.38,6.8-6.43,11-11.43s8.19-9.82,10.49-10.23c3.76-4.42-2.29.43,1.42-4l1.66-.68,0-1.78c2.55-2.83,4.71-3.56,5.42-3.2a30.35,30.35,0,0,0-2.13,2.86c4.08-3.05,8.81-10.39,10.23-11.32q-2.1,1.74-4.16,3.58a117.6,117.6,0,0,1,16.92-17.15c3.1-2.52,6.22-4.8,9.22-6.92s5.91-4.07,8.78-5.83l-1.26-.47c.55-.33,1.07-.66,1.57-.91s1-.47,1.41-.66a13.22,13.22,0,0,1,2.36-.83,13.54,13.54,0,0,1,3.59-.44,16.85,16.85,0,0,1,1.73,0c.62,0,1.29,0,2.06,0s1.67,0,2.7-.07,2.25-.07,3.68-.09l-.43.19a16.4,16.4,0,0,1,8.67-.19c-1.56.24-.27,1,.85,1.74s2.08,1.61.12,1.72c1.41.13,2.58.18,3.53.29s1.71.19,2.32.24a10.31,10.31,0,0,0,2.37,0c.52-.09.95-.27,1.78-.45a13.92,13.92,0,0,1,1.61-.26c.34,0,.72-.08,1.16-.11s.9,0,1.43,0l1,2.11a15.15,15.15,0,0,1,3.58,0,12.58,12.58,0,0,1,2.16.63c.44.16.93.36,1.48.6s1.14.6,1.82,1c-2.46-.84-1.91.19-1.5,1.19s.71,2-2,1.24a28.51,28.51,0,0,0,3.18,3c1.05.85,2,1.68,3,2.34.49.34,1,.65,1.46.95l1.38.91c.9.57,1.77,1.08,2.61,1.57A21.53,21.53,0,0,1,253.7-263a7.36,7.36,0,0,1,1.92,4.46c3.53.67,2-1.67-.05-4s-4.8-4.41-3.28-3.62c-.56-1.45.83-1.19,2.75-.15a19.7,19.7,0,0,1,5.56,4.58c1.39,1.59,1.64,3.8,2.34,6.57a23.38,23.38,0,0,0,1.58,4.61A26.9,26.9,0,0,0,268-245c-.6-.85-.9-.71-1.52-1.53a15.59,15.59,0,0,0,3.65,4.64,13.08,13.08,0,0,1,3.55,5.59c3.6.82,3.5,5.28,6.55,4.16q-1.53-1.93-3.09-3.83T274-239.71c3.89,4,9.88,6.24,13.58,15-1-.25-3.19-2.07-4.63-3.38a8.57,8.57,0,0,0,2.07,3.38,9.49,9.49,0,0,1,2.22,3.52c-1.51.58-3.54-2-5.58-4.91s-4.47-6.54-7.15-8.26c.53,3,8.22,8,3.7,7.43a6.09,6.09,0,0,1,3.5,2,11.4,11.4,0,0,1,1.23,1.63c.39.61.79,1.28,1.18,2a39.67,39.67,0,0,0,2.69,4.24,15.59,15.59,0,0,0,1.82,2,15.35,15.35,0,0,0,2.43,1.69l-1.82.74a23.46,23.46,0,0,1,4.54,4l-4.41-1.69a13.07,13.07,0,0,1,3.31,3.28,34.72,34.72,0,0,1,2.45,3.84c.75,1.33,1.47,2.67,2.32,3.93a14,14,0,0,0,3.13,3.26c-1.09-1.16-1.91-2.08-2.52-2.82a10,10,0,0,1-1.17-1.76c-.44-.87-.27-1.19.08-1.36.7-.33,2.11-.12.93-2.57,1.5,1.24,2.59,2.36,3.53,3.29a15.72,15.72,0,0,1,2.11,2.54,12.18,12.18,0,0,1,1.63,4.26,15,15,0,0,0,1.87,4.65,20.54,20.54,0,0,0,2.34,3.07,35.43,35.43,0,0,0,4.14,3.69,15.1,15.1,0,0,1-3.29-3.65c-.77-1.33-.88-2.23.75-1.28,2.2,2.48,5,5.94,6,8,4.66,3.47,4.61,2.8,4,1.55s-1.84-3.08.43-2a4.82,4.82,0,0,0,3.66,3.27,22.5,22.5,0,0,1,5.77,1.74l-1.09,1.6c.62.53,1.17,1,1.68,1.4s1,.71,1.41,1a10.52,10.52,0,0,0,2.06,1.05,2.79,2.79,0,0,0,2.23-.05c1.12-.44,2-.87,6.52,2.75-1.84-.09-3.7-.18-5.57-.3l5.51,2.59-2.21,1.21c1.62.52,2.92,1,4.06,1.47a24.12,24.12,0,0,1,3.05,1.43c1.86,1,3.55,2.36,6.23,4.12-.65-1.91,2.41-2.67,7.37-.11,2.87,2.75-2.75.66,4.45,4-2.13.26-4.6.73-6.86-2.45-.61.39-2.14.23-2.75.6a20,20,0,0,0,6,3.86c2.22,1,4.38,1.85,5.68,2.46a11.8,11.8,0,0,1-2.6-1.79q5.78,1.38,11.5,2.63c1.32,1.42-.22,1.34-1.75,1.25,2.19.8,4,.68,7.16,2-1.46,1-2,2.6-6.64,1.21,3.54,1,7.08,2.06,10.61,3,.37.93,4.28,4,2.76,4,2.52,1.67,6,2.43,9.71,3.45s7.57,2.2,10.57,4.55a5.89,5.89,0,0,1,2.82.64c3,1.89,5.51,4.08,8.21,6.17a42.6,42.6,0,0,0,9.4,5.68c.57,1.7,1.15,3.34,1.6,5,2.46,1.75,2,.14,1.84-1.23-.06-.68,0-1.29.56-1.35s1.74.42,3.81,2c2.95,2.29,2.95,3.24,2.41,3.85s-1.61.95-1.07,2.12a26.74,26.74,0,0,1,6.26,3.86,13.58,13.58,0,0,1,4.58,8C448.86-95.4,448.36-97,447.09-98.61Zm3.4,71.89c.14-.77.25-2,.51-3s.59-2,1.34-2.27a2.62,2.62,0,0,1,.23,2.8A25.08,25.08,0,0,1,450.49-26.72ZM349.78,30c1.2-.71,3.11-.5,5.29.11A15.33,15.33,0,0,1,349.78,30Zm-299,10.88H51C54.16,43.35,53.06,42.44,50.82,40.86Zm-6.72-4.7c-.84-.21-.94.05-.78.46.74-.08,2.35.77,4.1,1.93C47.16,37.82,46.42,37,44.1,36.16ZM279.47-255.47c.19.51.35,1,.53,1.53C277.46-256.35,278.42-255.88,279.47-255.47Z"/><path class="cls-1" d="M364.19,26.46a1.76,1.76,0,0,1,.77,1C365.57,27.08,365.56,26.71,364.19,26.46Z"/><path class="cls-1" d="M158.3,76.7a8.77,8.77,0,0,1,1.82,2.74C160.49,79.13,160.16,78.36,158.3,76.7Z"/><path class="cls-1" d="M9.45,7.78C10.56,9.2,11.76,10.59,13,12A12.26,12.26,0,0,1,10.69,7.6C10.38,8,10.41,9.17,9.45,7.78Z"/><path class="cls-1" d="M12.26.26c1.17-1.2-.94-3.6-2.9-6.55a5.7,5.7,0,0,1,.3.54C7.17-5.57,9.65-2.58,12.26.26Z"/><path class="cls-1" d="M34.72,31.24c-1.17-1.43-2.14,1-2.55-.18-1.43.17,1.34,1.63,3.45,2.12S39,33.58,34.72,31.24Z"/><path class="cls-1" d="M30.88,17.53l-1.8-2.14-.89-1.07-.83-1.13c-.19.29-.8-.1-1.5-.65l1.66,2c.54.64,1.1,1.2,1.57,1.7C30,17.19,30.73,17.8,30.88,17.53Z"/><path class="cls-1" d="M25.86,12.54c-.58-.68-1.18-1.32-1.72-1.88a8.42,8.42,0,0,0-1.47-1.33c.31.37.82,1,1.38,1.57A22.19,22.19,0,0,0,25.86,12.54Z"/><path class="cls-1" d="M19.86,1.12l.55,1.58c.7,1.08,1.39,2.17,2.13,3.23C21.6,4.35,20.7,2.75,19.86,1.12Z"/><path class="cls-1" d="M82.49,46.49l5.8,1.6c.82-.42-.56-1.4-2.74-1.94C84.05,46.09,81.87,45.54,82.49,46.49Z"/><path class="cls-1" d="M67.83,34.65a5.51,5.51,0,0,1,1.8,2.43l1.14-2.22Z"/><path class="cls-1" d="M84.07,40.59c.8-.43,8.79,1.25,1.67-1.31C84.93,39.71,79.16,38.1,84.07,40.59Z"/><polygon class="cls-1" points="161.19 87.97 160.01 87 157.52 90.23 161.19 87.97"/><path class="cls-1" d="M222.13,112.09c-2.64.52-2.71,1.1-2.79,1.77a1.11,1.11,0,0,1-.39.88,3.5,3.5,0,0,1-2.22.35c-.52.6.48.63,1.53.66s2.1-.16,1.56.45C222.83,114.22,224.57,113.92,222.13,112.09Z"/><path class="cls-1" d="M219.82,116.2c-.48.31-1,.7-1.55,1.06a5.46,5.46,0,0,0,1-.61A3.33,3.33,0,0,0,219.82,116.2Z"/></svg>